<svg width="81" height="77" viewBox="0 0 81 77" fill="none" xmlns="http://www.w3.org/2000/svg">
<rect x="2" y="2" width="77" height="73" rx="23" fill="white" stroke="#313A12" stroke-width="4"/>
<path fill-rule="evenodd" clip-rule="evenodd" d="M8 16.2414C8 15.0035 9.0035 14 10.2414 14H17.7586C18.5251 14 19.2017 14.3847 19.6059 14.9716C20.0026 15.2772 20.3046 15.7108 20.4396 16.2294L22.2444 23.1622C22.5251 23.0357 22.8365 22.9653 23.1643 22.9653H65.7585C66.9964 22.9653 67.9999 23.9688 67.9999 25.2067C67.9999 25.4033 67.9746 25.594 67.927 25.7758C67.9185 25.9386 67.8923 26.1032 67.8471 26.2673L62.062 47.2667C61.7263 48.4851 60.4688 49.2183 59.2452 48.9141C59.0905 48.9479 58.9298 48.9657 58.765 48.9657H26.857C26.6337 48.9657 26.418 48.933 26.2144 48.8722C25.091 48.9824 24.0172 48.2582 23.7251 47.136L16.2656 18.4828H10.2414C9.0035 18.4828 8 17.4793 8 16.2414ZM62.744 27.4481H23.3602L27.795 44.4829H58.0511L62.744 27.4481ZM28.3076 62.0001C30.2876 62.0001 31.6922 60.4706 31.6922 58.8277C31.6922 57.1847 30.2876 55.6553 28.3076 55.6553C26.3276 55.6553 24.923 57.1847 24.923 58.8277C24.923 60.4706 26.3276 62.0001 28.3076 62.0001ZM28.3076 66.0001C32.386 66.0001 35.6922 62.7889 35.6922 58.8277C35.6922 54.8665 32.386 51.6553 28.3076 51.6553C24.2292 51.6553 20.923 54.8665 20.923 58.8277C20.923 62.7889 24.2292 66.0001 28.3076 66.0001ZM58.4614 58.8277C58.4614 60.4706 57.0568 62.0001 55.0768 62.0001C53.0968 62.0001 51.6922 60.4706 51.6922 58.8277C51.6922 57.1847 53.0968 55.6553 55.0768 55.6553C57.0568 55.6553 58.4614 57.1847 58.4614 58.8277ZM62.4614 58.8277C62.4614 62.7889 59.1552 66.0001 55.0768 66.0001C50.9984 66.0001 47.6922 62.7889 47.6922 58.8277C47.6922 54.8665 50.9984 51.6553 55.0768 51.6553C59.1552 51.6553 62.4614 54.8665 62.4614 58.8277Z" fill="#313A12"/>
<path d="M22.5 27H64L59.5 45.5H27.5L22.5 27Z" fill="#313A12"/>
</svg>
