<svg width="25" height="25" viewBox="0 0 25 25" fill="none" xmlns="http://www.w3.org/2000/svg">
<rect x="0.5" y="4.07141" width="13" height="1.38095" rx="0.690476" fill="#313A12" stroke="#313A12"/>
<rect x="18.5" y="4.07141" width="6" height="1.38095" rx="0.690476" fill="#313A12" stroke="#313A12"/>
<path d="M19 4.16667C19 5.95443 17.6188 7.33333 16 7.33333C14.3812 7.33333 13 5.95443 13 4.16667C13 2.3789 14.3812 1 16 1C17.6188 1 19 2.3789 19 4.16667Z" stroke="#313A12" stroke-width="2"/>
<rect x="0.5" y="20.738" width="13" height="1.38095" rx="0.690476" fill="#313A12" stroke="#313A12"/>
<rect x="18.5" y="20.738" width="6" height="1.38095" rx="0.690476" fill="#313A12" stroke="#313A12"/>
<path d="M19 20.8333C19 22.6211 17.6188 24 16 24C14.3812 24 13 22.6211 13 20.8333C13 19.0455 14.3812 17.6666 16 17.6666C17.6188 17.6666 19 19.0455 19 20.8333Z" stroke="#313A12" stroke-width="2"/>
<rect x="24.5" y="12.5952" width="13" height="1.38095" rx="0.690476" transform="rotate(-180 24.5 12.5952)" fill="#313A12" stroke="#313A12"/>
<rect x="6.5" y="12.5952" width="6" height="1.38095" rx="0.690476" transform="rotate(-180 6.5 12.5952)" fill="#313A12" stroke="#313A12"/>
<path d="M6 12.5C6 10.7122 7.38123 9.33329 9 9.33329C10.6188 9.33329 12 10.7122 12 12.5C12 14.2877 10.6188 15.6666 9 15.6666C7.38123 15.6666 6 14.2877 6 12.5Z" stroke="#313A12" stroke-width="2"/>
</svg>
