<svg width="1945" height="135" viewBox="0 0 1945 135" fill="none" xmlns="http://www.w3.org/2000/svg">
<g clip-path="url(#clip0_480_2)">
<path fill-rule="evenodd" clip-rule="evenodd" d="M-0.993498 94.4829V0H1945V90.9999C1945 90.9999 1945 90.9999 1945 90.9999V95.5002C1895 141 1816.27 140.721 1738.36 120.158C1652.94 97.6133 1587.18 110.262 1549.39 117.531C1544.1 118.549 1539.35 119.462 1535.18 120.158C1447.36 134.793 1344.63 145.517 1202.97 114.498C1120.32 96.4027 1046.58 107.895 1013.63 114.498C929.525 137.533 863.04 142.826 765.952 114.498C698.215 94.7342 619.61 107.015 590.453 114.498C481.273 142.522 445.162 133.855 391.515 120.979C382.785 118.883 373.591 116.676 363.542 114.498C303.054 101.387 278.803 106.201 204.753 120.902C193.853 123.066 181.874 125.444 168.542 128.011C73.434 146.321 -0.06343 103.345 -0.991119 94.742H-0.993498V94.7183C-1.00052 94.6428 -1.00186 94.5699 -0.997487 94.4999C-0.997133 94.4942 -0.995803 94.4885 -0.993498 94.4829Z" fill="#759802"/>
</g>
<defs>
<clipPath id="clip0_480_2">
<rect width="1945" height="135" fill="white"/>
</clipPath>
</defs>
</svg>
