<svg width="1946" height="135" viewBox="0 0 1946 135" fill="none" xmlns="http://www.w3.org/2000/svg">
<path fill-rule="evenodd" clip-rule="evenodd" d="M0.001362 94.4903V0H1946V91.0001C1946 91.0001 1946 91.0001 1946 91.0001V95.5004C1896 141.001 1817.27 140.721 1739.36 120.158C1653.94 97.6135 1588.18 110.262 1550.39 117.531C1545.1 118.549 1540.35 119.462 1536.17 120.158C1448.35 134.793 1345.63 145.517 1203.96 114.498C1121.32 96.4028 1047.58 107.896 1014.62 114.498C930.521 137.533 864.035 142.827 766.947 114.498C699.211 94.7343 620.605 107.015 591.449 114.498C482.268 142.522 446.157 133.855 392.51 120.979C383.78 118.883 374.586 116.677 364.537 114.498C304.049 101.387 279.798 106.202 205.747 120.903C194.848 123.066 182.869 125.445 169.537 128.011C74.4277 146.321 0.932296 103.344 0.00610586 94.742H0.001362V94.69C-0.00351477 94.6246 -0.0040545 94.5613 -0.000233691 94.5001C-2.88662e-05 94.4968 0.000503121 94.4936 0.001362 94.4903Z" fill="#759802"/>
</svg>
