<svg width="75" height="75" viewBox="0 0 75 75" fill="none" xmlns="http://www.w3.org/2000/svg">
<g clip-path="url(#clip0_447_65)">
<path d="M13.4816 7.31151C13.9199 10.8798 18.421 16.0679 28.0059 21.2008C39.6976 27.462 45.3931 22.7981 55.9248 17.4384C63.3021 13.6839 69.9505 18.0114 72.0182 19.8575C68.7254 19.3885 60.2939 20.3371 55.5281 28.7134C47.9958 41.582 45.4814 36.2742 38.9419 36.1187C32.4025 35.9631 23.1724 30.5906 18.189 24.0063C14.963 19.744 11.9802 12.3629 13.4816 7.31151Z" fill="white"/>
<path d="M50.013 33.8556C44.6885 45.109 28.0323 66.4197 4.00382 61.6353C10.7398 61.8362 26.4013 58.7687 35.1591 44.8917C30.2021 49.5376 18.4144 58.9151 10.9193 59.2579C22.277 55.9393 30.224 45.8299 36.7035 33.7772C43.2282 21.6405 47.7439 28.5223 50.013 33.8556Z" fill="white"/>
<path d="M55.353 28.9799C52.1302 38.1263 49.5893 38.4356 42.5447 44.8181C33.7389 52.7961 56.7411 23.8961 55.353 28.9799Z" fill="white"/>
</g>
<defs>
<clipPath id="clip0_447_65">
<rect width="75" height="75" fill="white"/>
</clipPath>
</defs>
</svg>
