<svg width="346" height="60" viewBox="0 0 346 60" fill="none" xmlns="http://www.w3.org/2000/svg">
<rect width="346" height="60" rx="20" fill="#E2E2E2"/>
<path d="M26 20L34.6603 35H17.3397L26 20Z" fill="#CB5A5A"/>
<path d="M63.84 21.912C65.392 21.912 66.728 22.232 67.848 22.872C68.968 23.512 69.832 24.448 70.44 25.68C71.048 26.896 71.352 28.416 71.352 30.24C71.352 32.176 70.984 33.816 70.248 35.16C69.528 36.504 68.528 37.528 67.248 38.232C65.968 38.936 64.48 39.288 62.784 39.288C61.904 39.288 61.056 39.192 60.24 39C59.424 38.808 58.72 38.52 58.128 38.136L59.568 35.28C60.032 35.6 60.528 35.824 61.056 35.952C61.584 36.064 62.136 36.12 62.712 36.12C64.152 36.12 65.296 35.68 66.144 34.8C67.008 33.92 67.44 32.616 67.44 30.888C67.44 30.6 67.432 30.28 67.416 29.928C67.4 29.576 67.36 29.224 67.296 28.872L68.352 29.88C68.08 30.504 67.696 31.032 67.2 31.464C66.704 31.88 66.128 32.2 65.472 32.424C64.816 32.632 64.08 32.736 63.264 32.736C62.192 32.736 61.216 32.52 60.336 32.088C59.472 31.656 58.776 31.048 58.248 30.264C57.736 29.48 57.48 28.56 57.48 27.504C57.48 26.352 57.76 25.36 58.32 24.528C58.896 23.696 59.664 23.056 60.624 22.608C61.6 22.144 62.672 21.912 63.84 21.912ZM64.08 24.816C63.52 24.816 63.032 24.92 62.616 25.128C62.2 25.32 61.872 25.608 61.632 25.992C61.392 26.36 61.272 26.8 61.272 27.312C61.272 28.08 61.528 28.696 62.04 29.16C62.568 29.608 63.264 29.832 64.128 29.832C64.688 29.832 65.184 29.728 65.616 29.52C66.064 29.296 66.408 28.992 66.648 28.608C66.888 28.224 67.008 27.792 67.008 27.312C67.008 26.832 66.888 26.408 66.648 26.04C66.424 25.656 66.096 25.36 65.664 25.152C65.232 24.928 64.704 24.816 64.08 24.816ZM79.1213 21.912C80.6733 21.912 82.0093 22.232 83.1293 22.872C84.2493 23.512 85.1133 24.448 85.7213 25.68C86.3293 26.896 86.6333 28.416 86.6333 30.24C86.6333 32.176 86.2653 33.816 85.5293 35.16C84.8093 36.504 83.8093 37.528 82.5293 38.232C81.2493 38.936 79.7613 39.288 78.0653 39.288C77.1853 39.288 76.3373 39.192 75.5213 39C74.7053 38.808 74.0013 38.52 73.4093 38.136L74.8493 35.28C75.3133 35.6 75.8093 35.824 76.3373 35.952C76.8653 36.064 77.4173 36.12 77.9933 36.12C79.4333 36.12 80.5773 35.68 81.4253 34.8C82.2893 33.92 82.7213 32.616 82.7213 30.888C82.7213 30.6 82.7133 30.28 82.6973 29.928C82.6813 29.576 82.6413 29.224 82.5773 28.872L83.6333 29.88C83.3613 30.504 82.9773 31.032 82.4813 31.464C81.9853 31.88 81.4093 32.2 80.7533 32.424C80.0973 32.632 79.3613 32.736 78.5453 32.736C77.4733 32.736 76.4973 32.52 75.6173 32.088C74.7533 31.656 74.0573 31.048 73.5293 30.264C73.0173 29.48 72.7613 28.56 72.7613 27.504C72.7613 26.352 73.0413 25.36 73.6013 24.528C74.1773 23.696 74.9453 23.056 75.9053 22.608C76.8813 22.144 77.9533 21.912 79.1213 21.912ZM79.3613 24.816C78.8013 24.816 78.3133 24.92 77.8973 25.128C77.4813 25.32 77.1533 25.608 76.9133 25.992C76.6733 26.36 76.5533 26.8 76.5533 27.312C76.5533 28.08 76.8093 28.696 77.3213 29.16C77.8493 29.608 78.5453 29.832 79.4093 29.832C79.9693 29.832 80.4653 29.728 80.8973 29.52C81.3453 29.296 81.6893 28.992 81.9293 28.608C82.1693 28.224 82.2893 27.792 82.2893 27.312C82.2893 26.832 82.1693 26.408 81.9293 26.04C81.7053 25.656 81.3773 25.36 80.9453 25.152C80.5133 24.928 79.9853 24.816 79.3613 24.816ZM94.4025 21.912C95.9545 21.912 97.2905 22.232 98.4105 22.872C99.5305 23.512 100.395 24.448 101.003 25.68C101.611 26.896 101.915 28.416 101.915 30.24C101.915 32.176 101.547 33.816 100.811 35.16C100.091 36.504 99.0905 37.528 97.8105 38.232C96.5305 38.936 95.0425 39.288 93.3465 39.288C92.4665 39.288 91.6185 39.192 90.8025 39C89.9865 38.808 89.2825 38.52 88.6905 38.136L90.1305 35.28C90.5945 35.6 91.0905 35.824 91.6185 35.952C92.1465 36.064 92.6985 36.12 93.2745 36.12C94.7145 36.12 95.8585 35.68 96.7065 34.8C97.5705 33.92 98.0025 32.616 98.0025 30.888C98.0025 30.6 97.9945 30.28 97.9785 29.928C97.9625 29.576 97.9225 29.224 97.8585 28.872L98.9145 29.88C98.6425 30.504 98.2585 31.032 97.7625 31.464C97.2665 31.88 96.6905 32.2 96.0345 32.424C95.3785 32.632 94.6425 32.736 93.8265 32.736C92.7545 32.736 91.7785 32.52 90.8985 32.088C90.0345 31.656 89.3385 31.048 88.8105 30.264C88.2985 29.48 88.0425 28.56 88.0425 27.504C88.0425 26.352 88.3225 25.36 88.8825 24.528C89.4585 23.696 90.2265 23.056 91.1865 22.608C92.1625 22.144 93.2345 21.912 94.4025 21.912ZM94.6425 24.816C94.0825 24.816 93.5945 24.92 93.1785 25.128C92.7625 25.32 92.4345 25.608 92.1945 25.992C91.9545 26.36 91.8345 26.8 91.8345 27.312C91.8345 28.08 92.0905 28.696 92.6025 29.16C93.1305 29.608 93.8265 29.832 94.6905 29.832C95.2505 29.832 95.7465 29.728 96.1785 29.52C96.6265 29.296 96.9705 28.992 97.2105 28.608C97.4505 28.224 97.5705 27.792 97.5705 27.312C97.5705 26.832 97.4505 26.408 97.2105 26.04C96.9865 25.656 96.6585 25.36 96.2265 25.152C95.7945 24.928 95.2665 24.816 94.6425 24.816ZM119.486 39V22.2H126.758C128.998 22.2 130.774 22.672 132.086 23.616C133.398 24.56 134.054 25.976 134.054 27.864C134.054 29.736 133.398 31.144 132.086 32.088C130.774 33.032 128.998 33.504 126.758 33.504H121.646L123.398 31.776V39H119.486ZM123.398 32.184L121.646 30.456H126.734C127.806 30.456 128.638 30.24 129.23 29.808C129.822 29.36 130.118 28.72 130.118 27.888C130.118 27.072 129.822 26.448 129.23 26.016C128.638 25.584 127.806 25.368 126.734 25.368H121.646L123.398 23.52V32.184ZM117.158 36.84V34.848H128.582V36.84H117.158Z" fill="#CB5A5A"/>
<path d="M174 32.8196C174.178 33.1823 181.706 32.8196 182.558 32.8196C185.698 32.8196 188.838 32.8196 191.978 32.8196C196.638 32.8196 201.299 32.8196 205.959 32.8196C208.551 32.8196 210.926 32.797 213.463 32.6796C214.172 32.6468 214.658 32.5472 215.394 32.5472C216.021 32.5472 216.784 32.5791 217.385 32.5321C218.473 32.4468 219.781 32.4433 220.802 32.3277C222.64 32.1197 225.166 32.4191 226.953 32.1915C228.712 31.9677 231.48 30.9808 233.5 30.9808C234.541 30.9808 236.487 30.0143 237.5 30C241 29.5 243.22 28.909 244.5 28.909C246.743 28.909 247.728 28.909 250 28.909C252.144 28.909 253.856 28.909 256 28.909C258.15 28.909 260.464 27.6119 262.5 27.4523C264.569 27.2902 266.349 27.4128 268.5 27.4128C270.807 27.4128 272.598 27.6747 275 27.6747C276.257 27.6747 278.327 27.7781 279.5 27.6747C280.825 27.5579 282.662 27.4885 284 27.4128C285.312 27.3385 286.155 27.0473 287.5 27.0292C288.876 27.0108 290.093 27.0243 291.5 27.0243" stroke="#CB5A5A" stroke-width="2" stroke-linecap="round"/>
<rect width="2.88971" height="21.7272" rx="1.44485" transform="matrix(0.965406 -0.26075 0.828067 0.560629 312.504 18.6116)" fill="#313A12"/>
<rect width="2.88651" height="20.4576" rx="1.44325" transform="matrix(0.967053 0.254575 -0.801895 0.597464 330.846 29.2561)" fill="#313A12"/>
</svg>
